# xmcd CD database file generated by OrangeCD 6.3
#
# Track frame offsets:
#	150
#	14742
#	35027
#	54748
#	78044
#	107320
#	148321
#	169552
#
# Disc length: 2537 seconds
#
# Revision: 1
# Processed by: cddbd v1.5.2PL0 Copyright (c) Steve Scherf et al.
# Submitted via: OrangeCD 6.3
#
DISCID=6409e708
DTITLE=Joe Pass - Sounds of Synanon (remaster)
DYEAR=2002
DGENRE=Jazz
TTITLE0=C.E.D.
TTITLE1=Aaron's Song
TTITLE2=Stay Loose
TTITLE3=Projections
TTITLE4=Hang Tough
TTITLE5=Self-image
TTITLE6=Last Call for Coffee
TTITLE7=Blues
EXTD=
EXTT0=
EXTT1=
EXTT2=
EXTT3=
EXTT4=
EXTT5=
EXTT6=
EXTT7=
PLAYORDER=
